<svg width="12" height="12" viewBox="0 0 12 12" fill="none" xmlns="http://www.w3.org/2000/svg">
<g clip-path="url(#clip0_1_227)">
<path d="M11.0002 1.125H9.375V0.375C9.375 0.167625 9.20737 0 9 0C8.79263 0 8.625 0.167625 8.625 0.375V1.125H6.375V0.375C6.375 0.167625 6.207 0 6 0C5.793 0 5.625 0.167625 5.625 0.375V1.125H3.375V0.375C3.375 0.167625 3.207 0 3 0C2.793 0 2.625 0.167625 2.625 0.375V1.125H1.00013C0.44775 1.125 0 1.57237 0 2.12475V10.9999C0 11.5522 0.44775 12 1.00013 12H11.0002C11.5526 12 12 11.5522 12 10.9999V2.12475C12 1.57237 11.5526 1.125 11.0002 1.125ZM11.25 10.9999C11.25 11.1379 11.1379 11.25 11.0002 11.25H1.00013C0.862125 11.25 0.75 11.1379 0.75 10.9999V2.12475C0.75 1.98712 0.862125 1.875 1.00013 1.875H2.625V2.625C2.625 2.83238 2.793 3 3 3C3.207 3 3.375 2.83238 3.375 2.625V1.875H5.625V2.625C5.625 2.83238 5.793 3 6 3C6.207 3 6.375 2.83238 6.375 2.625V1.875H8.625V2.625C8.625 2.83238 8.79263 3 9 3C9.20737 3 9.375 2.83238 9.375 2.625V1.875H11.0002C11.1379 1.875 11.25 1.98712 11.25 2.12475V10.9999Z" fill="#43586C"/>
<path d="M4.125 4.5H2.625V5.625H4.125V4.5Z" fill="#43586C"/>
<path d="M4.125 6.375H2.625V7.5H4.125V6.375Z" fill="#43586C"/>
<path d="M4.125 8.25H2.625V9.375H4.125V8.25Z" fill="#43586C"/>
<path d="M6.75 8.25H5.25V9.375H6.75V8.25Z" fill="#43586C"/>
<path d="M6.75 6.375H5.25V7.5H6.75V6.375Z" fill="#43586C"/>
<path d="M6.75 4.5H5.25V5.625H6.75V4.5Z" fill="#43586C"/>
<path d="M9.375 8.25H7.875V9.375H9.375V8.25Z" fill="#43586C"/>
<path d="M9.375 6.375H7.875V7.5H9.375V6.375Z" fill="#43586C"/>
<path d="M9.375 4.5H7.875V5.625H9.375V4.5Z" fill="#43586C"/>
</g>
<defs>
<clipPath id="clip0_1_227">
<rect width="12" height="12" fill="white"/>
</clipPath>
</defs>
</svg>
