<svg width="107" height="82" viewBox="0 0 107 82" fill="none" xmlns="http://www.w3.org/2000/svg">
<g clip-path="url(#clip0_1_763)">
<path d="M107 2.97222C107 3.76051 106.687 4.5165 106.129 5.0739C105.572 5.6313 104.816 5.94445 104.028 5.94445C103.239 5.94445 102.483 5.6313 101.926 5.0739C101.369 4.5165 101.056 3.76051 101.056 2.97222C101.056 2.18394 101.369 1.42794 101.926 0.870544C102.483 0.313144 103.239 0 104.028 0C104.816 0 105.572 0.313144 106.129 0.870544C106.687 1.42794 107 2.18394 107 2.97222Z" fill="#A74610"/>
<path fill-rule="evenodd" clip-rule="evenodd" d="M27.2454 80.8326C12.198 80.8326 0 68.6346 0 53.5872V1.98148H9.90741V53.5872C9.90741 58.1855 11.7341 62.5955 14.9856 65.847C18.2371 69.0985 22.6471 70.9252 27.2454 70.9252C36.9408 70.9252 44.5833 63.453 44.5833 53.9954H54.4907V68.8565C54.4907 69.5134 54.7517 70.1434 55.2162 70.6079C55.6807 71.0724 56.3107 71.3334 56.9676 71.3334C57.6245 71.3334 58.2545 71.0724 58.719 70.6079C59.1835 70.1434 59.4444 69.5134 59.4444 68.8565V51.2708C57.6449 51.6382 55.7862 51.6007 54.003 51.161C52.2198 50.7213 50.5566 49.8905 49.1341 48.7288C47.7116 47.5671 46.5653 46.1035 45.7782 44.4441C44.9911 42.7846 44.583 40.9709 44.5833 39.1343V14.3657C44.5833 11.0812 45.8881 7.93124 48.2106 5.60874C50.5331 3.28624 53.6831 1.98148 56.9676 1.98148C60.2521 1.98148 63.4021 3.28624 65.7246 5.60874C68.0471 7.93124 69.3519 11.0812 69.3519 14.3657V68.8565C69.3519 69.5134 69.6128 70.1434 70.0773 70.6079C70.5418 71.0724 71.1718 71.3334 71.8287 71.3334C72.4856 71.3334 73.1156 71.0724 73.5801 70.6079C74.0446 70.1434 74.3056 69.5134 74.3056 68.8565V14.3657C74.3056 11.0812 75.6103 7.93124 77.9328 5.60874C80.2553 3.28624 83.4053 1.98148 86.6898 1.98148C89.9743 1.98148 93.1243 3.28624 95.4468 5.60874C97.7693 7.93124 99.0741 11.0812 99.0741 14.3657V68.8565C99.0741 71.1564 98.4336 73.4109 97.2245 75.3673C96.0154 77.3237 94.2853 78.9048 92.2282 79.9333C90.1711 80.9619 87.8683 81.3973 85.5776 81.1907C83.287 80.9842 81.0992 80.1439 79.2593 78.7639C77.1175 80.3753 74.5089 81.2448 71.8287 81.2408C69.1485 81.2448 66.5399 80.3753 64.3981 78.7639C62.9076 79.8817 61.1842 80.6488 59.3561 81.0082C57.528 81.3675 55.6424 81.3098 53.8397 80.8395C52.037 80.3691 50.3636 79.4981 48.9442 78.2913C47.5247 77.0846 46.3958 75.5732 45.6414 73.8697C40.7749 78.223 34.3014 80.8326 27.2454 80.8326ZM86.6898 71.3334C85.3226 71.3334 84.213 70.2237 84.213 68.8565V14.3657C84.213 13.7088 84.4739 13.0788 84.9384 12.6143C85.4029 12.1498 86.0329 11.8889 86.6898 11.8889C87.3467 11.8889 87.9767 12.1498 88.4412 12.6143C88.9057 13.0788 89.1667 13.7088 89.1667 14.3657V68.8565C89.1667 70.2237 88.057 71.3334 86.6898 71.3334ZM59.4444 39.1343C59.4444 39.7912 59.1835 40.4212 58.719 40.8857C58.2545 41.3502 57.6245 41.6111 56.9676 41.6111C56.3107 41.6111 55.6807 41.3502 55.2162 40.8857C54.7517 40.4212 54.4907 39.7912 54.4907 39.1343V14.3657C54.4907 13.7088 54.7517 13.0788 55.2162 12.6143C55.6807 12.1498 56.3107 11.8889 56.9676 11.8889C57.6245 11.8889 58.2545 12.1498 58.719 12.6143C59.1835 13.0788 59.4444 13.7088 59.4444 14.3657V39.1343Z" fill="#A74610"/>
<path fill-rule="evenodd" clip-rule="evenodd" d="M14.8611 53.9954C14.8611 57.2799 16.1659 60.4299 18.4883 62.7524C20.8108 65.0749 23.9608 66.3796 27.2453 66.3796C30.5299 66.3796 33.6798 65.0749 36.0023 62.7524C38.3248 60.4299 39.6296 57.2799 39.6296 53.9954V14.3657C39.6296 11.0812 38.3248 7.93124 36.0023 5.60874C33.6798 3.28624 30.5299 1.98148 27.2453 1.98148C23.9608 1.98148 20.8108 3.28624 18.4883 5.60874C16.1659 7.93124 14.8611 11.0812 14.8611 14.3657V53.9954ZM27.2453 56.4722C25.8781 56.4722 24.7685 55.3626 24.7685 53.9954V14.3657C24.7685 13.7088 25.0294 13.0788 25.4939 12.6143C25.9584 12.1498 26.5884 11.8889 27.2453 11.8889C27.9022 11.8889 28.5322 12.1498 28.9967 12.6143C29.4612 13.0788 29.7222 13.7088 29.7222 14.3657V53.9954C29.7222 55.3626 28.6126 56.4722 27.2453 56.4722Z" fill="#A74610"/>
</g>
<defs>
<clipPath id="clip0_1_763">
<rect width="107" height="81.2408" fill="white"/>
</clipPath>
</defs>
</svg>
